# xmcd
#
# Track frame offsets:
#	150
#	16325
#	32665
#	50393
#	73891
#	99830
#	114327
#	142984
#	160539
#	180618
#	211849
#	230850
#	248733
#	261780
#
# Disc length: 3669 seconds
#
# Revision: 0
# Processed by: cddbd v1.5.2PL0 Copyright (c) Steve Scherf et al.
# Submitted via: dBpowerAMP V4.0
#
DISCID=b40e530e
DTITLE=better blue - you're gone
DYEAR=2012
DGENRE=Blues
TTITLE0=come to mama
TTITLE1=how strong is a woman
TTITLE2=give it up
TTITLE3=I don't wanna know
TTITLE4=jailhouse blues
TTITLE5=slipped, tripped and fell in love
TTITLE6=I can't stand the rain
TTITLE7=having a real bad day
TTITLE8=your eyes
TTITLE9=you're gone
TTITLE10=breaking up somebody's home
TTITLE11=I can take you
TTITLE12=now that you've got it
TTITLE13=five
EXTD=
EXTT0=
EXTT1=
EXTT2=
EXTT3=
EXTT4=
EXTT5=
EXTT6=
EXTT7=
EXTT8=
EXTT9=
EXTT10=
EXTT11=
EXTT12=
EXTT13=
PLAYORDER=
